<svg xmlns="http://www.w3.org/2000/svg" viewBox="0 0 100 100">
  <!-- Orange background -->
  <rect width="100" height="100" rx="22" ry="22" fill="#E85D04"/>

  <!-- Left C bracket -->
  <path d="
    M 44,19
    L 28,19
    Q 17,19 17,30
    L 17,70
    Q 17,81 28,81
    L 44,81
    L 44,69
    L 39,69
    Q 31,69 31,61
    L 31,39
    Q 31,31 39,31
    L 44,31
    Z
  " fill="white"/>

  <!-- Right C bracket (mirrored) -->
  <path d="
    M 56,19
    L 72,19
    Q 83,19 83,30
    L 83,70
    Q 83,81 72,81
    L 56,81
    L 56,69
    L 61,69
    Q 69,69 69,61
    L 69,39
    Q 69,31 61,31
    L 56,31
    Z
  " fill="white"/>
</svg>
